# xmcd
# Copyright (C) 1995-1998 Ti Kan
#
# Track frame offsets:
#       150
#       17385
#       33397
#       51132
#       79894
#       96493
#       109463
#       126597
#       144755
#       162434
#       181167
#       201617
#       217864
#       235757
#       259713
#       273373
#
# Disc length: 3840 seconds
#
# Revision: 14
# Processed by: cddbd v1.5.1PL0 Copyright (c) Steve Scherf et al.
# Submitted via: CD-Transfer v1.0
#
DISCID=e30efe10
DTITLE=Fat Hed Ft. Motion Man - Euro Express 577
DYEAR=04
DGENRE=
TTITLE0=U Got What I Need (Radio)
TTITLE1=Used To Love U (Album Vers.)vinyl!
TTITLE2=U-Haul
TTITLE3=Let Your Anointingfill This Place
TTITLE4=Sara Smile
TTITLE5=Soul Boy
TTITLE6=Street Hop (Clean)vinyl!(Lirics)
TTITLE7=Now and Laters (Radio)vinyl!
TTITLE8=Freaky (Clean Radio Edit)vinyl!
TTITLE9=Caught Up In The Rapture (Album Vers.radio Edit)
TTITLE10=Freaks (Radio Edit)
TTITLE11=Chillin' (Clean)vinyl!
TTITLE12=Freaky (Clean Radio Edit)vinyl!
TTITLE13=Southside (Remix)
TTITLE14=Stay Cool
TTITLE15=What Do We Need Today
EXTD=
EXTT0=
EXTT1=
EXTT2=
EXTT3=
EXTT4=
EXTT5=
EXTT6=
EXTT7=
EXTT8=
EXTT9=
EXTT10=
EXTT11=
EXTT12=
EXTT13=
EXTT14=
EXTT15=
PLAYORDER=
